<?xml version="1.0" standalone="no"?>
<!DOCTYPE svg PUBLIC "-//W3C//DTD SVG 20010904//EN"
 "http://www.w3.org/TR/2001/REC-SVG-20010904/DTD/svg10.dtd">
<svg version="1.0" xmlns="http://www.w3.org/2000/svg"
 width="308.000000pt" height="308.000000pt" viewBox="0 0 308.000000 308.000000"
 preserveAspectRatio="xMidYMid meet">
<metadata>
Created by potrace 1.14, written by Peter Selinger 2001-2017
</metadata>
<g transform="translate(0.000000,308.000000) scale(0.100000,-0.100000)"
fill="#000000" stroke="none">
<path d="M1378 3035 c-167 -41 -354 -169 -501 -345 -149 -179 -283 -417 -371
-662 -72 -200 -77 -167 62 -428 65 -124 128 -242 138 -263 l20 -37 169 292
c280 481 298 511 328 528 53 30 66 12 262 -345 99 -182 199 -365 223 -408 l43
-77 111 127 c326 375 295 343 338 343 38 0 45 -7 272 -247 l233 -246 3 59 c2
32 -1 75 -7 94 -5 19 -17 88 -25 152 -59 452 -292 938 -584 1220 -188 181
-358 259 -561 257 -53 0 -122 -7 -153 -14z"/>
<path d="M1085 1631 c-296 -512 -313 -540 -341 -547 -47 -12 -70 10 -130 123
-200 375 -213 397 -219 372 -24 -100 -22 -323 5 -504 14 -89 77 -280 126 -376
180 -360 497 -598 869 -654 125 -19 155 -19 280 0 322 48 599 232 791 524 86
133 163 310 194 453 l13 56 -179 193 c-98 106 -205 220 -236 253 l-57 61 -18
-22 c-10 -11 -105 -120 -212 -241 -127 -145 -202 -223 -219 -227 -17 -4 -33 0
-50 12 -13 10 -118 189 -235 405 -117 212 -214 389 -217 391 -3 3 -77 -120
-165 -272z"/>
</g>
</svg>
